<?xml version="1.0" encoding="utf-8"?>
<!-- Svg Vector Icons : http://www.onlinewebfonts.com/icon -->
<!DOCTYPE svg PUBLIC "-//W3C//DTD SVG 1.1//EN" "http://www.w3.org/Graphics/SVG/1.1/DTD/svg11.dtd">
<svg version="1.1" height="35px" width="35px" xmlns="http://www.w3.org/2000/svg" xmlns:xlink="http://www.w3.org/1999/xlink" x="0px" y="0px" viewBox="0 0 256 256" enable-background="new 0 0 256 256" xml:space="preserve">
<metadata> Svg Vector Icons : http://www.onlinewebfonts.com/icon </metadata>
<path fill="#ffffff" height="35px" width="35px" d="M187.9,10.1c-1.5,0.2-38.8,44.1-42.1,49.4c-2.3,3.8-3.6,10-3.1,14.3c0.8,6,4.7,14.1,9,18.6l1.8,1.9l-10.7,12.9c-11.6,14.1-12.2,15.1-9.2,18.1c2.1,2.1,4.3,2.5,6.2,1.3c0.9-0.6,6.1-6.5,11.7-13.2l10-12.2l4,1.8c5.6,2.6,13.3,3.8,18.6,3.1c5.5-0.9,9.1-2.5,12.5-5.6c1.5-1.4,8.2-9.3,14.9-17.6c6.7-8.2,14.8-18.2,18-22c5-6,5.8-7.3,5.9-9.3c0-3.7-4.2-6.5-7.3-4.8c-1,0.5-7.8,8.5-24.1,28.6c-3.6,4.5-6.8,8.1-7.1,7.9c-0.8-0.2-6-4.4-6-4.8c0-0.2,6.6-8.1,14.7-17.6c15.3-18.1,15.8-18.9,14-22.1c-0.8-1.6-3.8-2.9-5.8-2.5c-1,0.2-5.9,5.6-15.6,17.1c-7.8,9.3-14.5,17.2-14.9,17.7c-0.5,0.7-1.1,0.4-3.4-1.4c-1.5-1.3-2.7-2.5-2.9-2.8c-0.1-0.2,5-6.6,11.3-14.1c18.5-21.9,17.9-21.1,17.9-23.4c0-1.5-0.5-2.4-1.9-3.6c-2.1-1.8-4-2-5.9-0.7c-0.7,0.5-7.8,8.7-15.7,18l-14.4,17.1l-2.7-2.3c-1.5-1.2-2.7-2.4-2.7-2.7c0-0.2,7.1-8.9,15.9-19.2c16.9-20,17.2-20.6,15-23.9C192.5,10.7,189.9,9.8,187.9,10.1z M173,77.7c9.3,7.6,16.9,14.1,16.9,14.5s-1,1.2-2.1,1.9c-1.8,1-3.2,1.3-8.2,1.3c-5.6,0-6.4-0.2-9.8-1.8c-5.1-2.5-11.8-9.3-14.3-14.4c-1.5-3.2-2-4.8-2-7.7c-0.1-3.3,1.2-7.5,2.3-7.5C155.9,63.9,163.7,70.1,173,77.7z"/><path fill="#ffffff" d="M25.3,35.1c-3.2,1.6-5.1,5.6-4.6,9.7c0.8,7,5.1,17,16.9,39.1c24.5,45.9,33.5,60.4,43,70c5.7,5.7,10.4,7.9,16.4,7.9c5.7-0.1,8.5-1.3,13.5-5.8l3.7-3.4l3.7,4.6c2,2.6,8,10.7,13.3,18.1c23.1,31.9,28,38.3,35.8,46.2c7.1,7.2,11.4,9.3,18.9,9.3c4.5,0,5.7-0.2,8.7-1.7c6.8-3.3,11.7-9.9,13.3-17.8c0.9-4.2,0.5-8.2-1.3-13.1c-1.5-4.3-6.5-9.3-44.1-44.7C90.2,85.6,37.6,37.2,33.7,35C31.2,33.7,28,33.7,25.3,35.1z M44.9,57.6c29.6,26.8,119.6,110.9,141.8,132.6c11,10.7,12.4,12.8,11.8,18.2c-0.9,9-9.2,15.3-16.7,12.4c-6.5-2.4-15-12.6-40.8-48.5c-9.2-12.8-19.1-25.8-23.7-31.1l-2.1-2.4l-6,5.3c-3.4,2.9-6.5,5.8-7.2,6.5c-1.5,1.6-4.5,2.1-7.8,1.3c-3.8-1-11.3-8.7-17.2-17.7C65.9,117,36.4,62.3,32.4,51.2c-2.2-6.1-2.1-7,0.4-4.6C33.9,47.6,39.3,52.5,44.9,57.6z"/><path fill="#ffffff" d="M73.1,164.2c-11.6,10-35.5,34.4-44.5,45.3c-7.5,9.2-9.1,17-5.1,25.2c3.6,7.6,14.3,12.6,23.6,11.1c6.8-1.1,9.4-3.2,20.6-17.3c9.7-12.1,40.1-52.6,41.7-55.8c2.4-4.4-4-9.6-7.8-6.3c-0.7,0.6-6.4,8.1-12.6,16.7c-22.7,30.8-37.2,49.2-40.8,51.4c-6.2,3.7-16.3-1.3-16.3-8.1c0-5.6,5.7-12.4,31.4-38C81.6,170.1,83,168.6,83,166.6c0-1.5-0.4-2.5-1.7-3.5C78.8,160.9,76.6,161.2,73.1,164.2z"/>
</svg>