<svg fill="#ffffff" height="35px" width="35px" xmlns="http://www.w3.org/2000/svg" viewBox="0 0 48 48" id="recycle-bin"><g data-name="44. Recycle bin"><path d="M41,5H31V3a3,3,0,0,0-3-3H20a3,3,0,0,0-3,3V5H7A2,2,0,0,0,5,7v5a2,2,0,0,0,2,2c0,2.33-.4,4.41,1.66,5.45.52.26.27-2.25,1.24,24.69a4,4,0,0,0,4,3.86H34.11a4,4,0,0,0,4-3.86L39,19.63c2.41-1.21,2-2.5,2-5.63a2,2,0,0,0,2-2V7A2,2,0,0,0,41,5ZM28,2c1.2,0,1,1.17,1,3H19C19,1.13,18.06,2,28,2Zm9.55,16.11c-.77.38-.47-1.3-1.45,26a2,2,0,0,1-2,1.93H13.89a2,2,0,0,1-2-1.93L11,19c0-.71-.57-.86-1.45-1.3C8.85,17.31,9,16.9,9,14H39C39,17.65,39.32,17.22,37.55,18.11ZM7,12V7H41v5Z"></path><path d="M17.72 38c4.45 0 4-.13 3.57.29A1 1 0 0 0 22 40c.54 0 .56-.15 2.71-2.29a1 1 0 0 0 .21-1.09c-.1-.26-.05-.17-2.21-2.33a1 1 0 0 0-1.42 1.42c.4.39 1.07.29-3.57.29l1.33-2.33a1 1 0 0 0-.37-1.37C17.51 31.64 17 33.18 16 35A2 2 0 0 0 17.72 38zM26 32a1 1 0 0 0 1.94.51c.14-.54-.24-1 2.31 3.49C28.61 36 27 35.68 27 37s1.64 1 3.28 1A2 2 0 0 0 32 35c-2.67-4.67-2.38-3.93-1.8-3.78a1 1 0 0 0 .51-1.93C26.54 28.17 27.17 27.76 26 32zM19.32 29.76a1 1 0 0 0 1.23.7l2.73-.73a1 1 0 0 0-.52-1.93C22.17 28 22 28.49 24 25l.72 1.25a1 1 0 0 0 1.91-.42c0-.34-.06-.37-.9-1.83a2 2 0 0 0-3.47 0c-2 3.46-1.59 3-1.74 2.49a1 1 0 0 0-1.93.52z"></path></g></svg>